<svg width="64" height="64" viewBox="0 0 64 64" fill="none" xmlns="http://www.w3.org/2000/svg">
<path d="M29.1855 1.06142C30.6007 -0.353807 32.8991 -0.353807 34.3143 1.06142L52.4292 19.1764C53.4708 20.218 53.7765 21.7691 53.2104 23.1277C52.6443 24.4863 51.331 25.3694 49.8592 25.3694H38.9902V46.1903C38.9902 48.6924 36.9636 50.719 34.4615 50.719H29.027C26.5249 50.719 24.4983 48.6924 24.4983 46.1903V25.3581H13.6293C12.1688 25.3581 10.8441 24.475 10.278 23.1164C9.71193 21.7577 10.0289 20.2067 11.0592 19.165L29.1742 1.0501L29.1855 1.06142Z" fill="black"/>
<rect x="8" y="54" width="47" height="10" rx="5" fill="black"/>
</svg>
